<?xml version="1.0" encoding="UTF-8" standalone="no" ?>
<!DOCTYPE svg PUBLIC "-//W3C//DTD SVG 1.1//EN" "http://www.w3.org/Graphics/SVG/1.1/DTD/svg11.dtd">
<svg xmlns="http://www.w3.org/2000/svg" xmlns:xlink="http://www.w3.org/1999/xlink" version="1.1" width="1080" height="1080" viewBox="0 0 1080 1080" xml:space="preserve">
<desc>Created with Fabric.js 5.2.4</desc>
<defs>
</defs>
<g transform="matrix(1 0 0 1 540 540)" id="dec2b633-2424-47d7-8f49-6a5f9992fe04"  >
<rect style="stroke: none; stroke-width: 1; stroke-dasharray: none; stroke-linecap: butt; stroke-dashoffset: 0; stroke-linejoin: miter; stroke-miterlimit: 4; fill: rgb(255,255,255); fill-rule: nonzero; opacity: 1; visibility: hidden;" vector-effect="non-scaling-stroke"  x="-540" y="-540" rx="0" ry="0" width="1080" height="1080" />
</g>
<g transform="matrix(1 0 0 1 540 540)" id="bd12eb0e-9a2c-4c20-a75c-45034445a808"  >
</g>
<g transform="matrix(0.25 0 0 0.25 539.13 539.99)" id="0cd56241-ad66-46c0-a6b4-95628ab19b55"  >
<path style="stroke: rgb(0,0,0); stroke-width: 0; stroke-dasharray: none; stroke-linecap: butt; stroke-dashoffset: 0; stroke-linejoin: miter; stroke-miterlimit: 4; fill: rgb(255,184,108); fill-rule: nonzero; opacity: 1;" vector-effect="non-scaling-stroke"  transform=" translate(-2557.75, -2559.01)" d="M 1890 4633 C 1641 4624 1402 4590 1264 4544 C 946 4438 682 4175 577 3860 C 500 3626 480 3365 480 2560 C 480 1755 500 1494 577 1260 C 679 954 945 684 1246 582 C 1484 501 1752 480 2560 480 C 3487 480 3734 507 3995 634 C 4248 758 4455 996 4544 1264 C 4576 1361 4604 1514 4622 1686 C 4640 1868 4640 3252 4622 3434 C 4604 3606 4576 3759 4544 3856 C 4455 4124 4248 4362 3995 4486 C 3813 4575 3628 4612 3275 4630 C 3109 4639 2096 4641 1890 4633 z M 3696 3311 C 3750 3287 3784 3232 3784 3171 C 3784 3132 3756 3070 3602 2757 L 3421 2388 L 3343 2311 C 3202 2173 3034 2119 2842 2154 C 2662 2186 2516 2295 2431 2460 C 2407 2507 2373 2560 2356 2578 C 2265 2676 2115 2683 2012 2595 C 1976 2564 1947 2511 1797 2207 C 1613 1834 1596 1808 1524 1794 C 1419 1774 1313 1878 1336 1977 C 1340 1992 1422 2167 1519 2365 C 1682 2695 1701 2730 1758 2792 C 1877 2918 2001 2972 2175 2973 C 2404 2975 2584 2863 2693 2654 C 2748 2546 2797 2498 2871 2476 C 2936 2456 2954 2456 3016 2475 C 3117 2505 3132 2526 3320 2908 C 3414 3099 3501 3266 3513 3279 C 3561 3330 3627 3342 3696 3311 z" stroke-linecap="round" />
</g>
<g transform="matrix(NaN NaN NaN NaN 0 0)"  >
<g style=""   >
</g>
</g>
</svg>